<mxfile host="app.diagrams.net" modified="2023-07-10T09:42:59.316Z" agent="Mozilla/5.0 (Windows NT 10.0; Win64; x64) AppleWebKit/537.36 (KHTML, like Gecko) Chrome/114.0.0.0 Safari/537.36" etag="KafKkNlzsCisWmy9V6Ly" version="21.6.1" type="github">
  <diagram name="Page-1" id="74b105a0-9070-1c63-61bc-23e55f88626e">
    <mxGraphModel dx="1434" dy="818" grid="1" gridSize="10" guides="1" tooltips="1" connect="1" arrows="1" fold="1" page="1" pageScale="1.5" pageWidth="1169" pageHeight="826" background="none" math="0" shadow="0">
      <root>
        <mxCell id="0" style=";html=1;" />
        <mxCell id="1" style=";html=1;" parent="0" />
        <mxCell id="10b056a9c633e61c-17" style="edgeStyle=orthogonalEdgeStyle;rounded=0;html=1;endArrow=block;endFill=1;jettySize=auto;orthogonalLoop=1;strokeWidth=2;startArrow=none;startFill=0;" parent="1" source="10b056a9c633e61c-4" edge="1">
          <mxGeometry relative="1" as="geometry">
            <mxPoint x="382" y="635" as="targetPoint" />
          </mxGeometry>
        </mxCell>
        <mxCell id="10b056a9c633e61c-4" value="Message Endpoint" style="strokeWidth=2;dashed=0;align=center;fontSize=12;shape=rect;verticalLabelPosition=bottom;verticalAlign=top;fillColor=#c0f5a9" parent="1" vertex="1">
          <mxGeometry x="172" y="590" width="150" height="90" as="geometry" />
        </mxCell>
        <mxCell id="10b056a9c633e61c-5" value="" style="strokeWidth=1;dashed=0;align=center;fontSize=8;shape=rect;fillColor=#ffffff;strokeColor=#000000;" parent="10b056a9c633e61c-4" vertex="1">
          <mxGeometry x="85" y="25" width="40" height="40" as="geometry" />
        </mxCell>
        <mxCell id="2i1Whluo_Nb75jQpyrb8-44" style="edgeStyle=orthogonalEdgeStyle;rounded=0;orthogonalLoop=1;jettySize=auto;html=1;" edge="1" parent="1" source="10b056a9c633e61c-13">
          <mxGeometry relative="1" as="geometry">
            <mxPoint x="1412" y="331" as="targetPoint" />
          </mxGeometry>
        </mxCell>
        <mxCell id="2i1Whluo_Nb75jQpyrb8-48" value="Response sent to original user&#39;s message thread" style="edgeLabel;html=1;align=center;verticalAlign=middle;resizable=0;points=[];" vertex="1" connectable="0" parent="2i1Whluo_Nb75jQpyrb8-44">
          <mxGeometry x="0.2444" y="-2" relative="1" as="geometry">
            <mxPoint as="offset" />
          </mxGeometry>
        </mxCell>
        <mxCell id="10b056a9c633e61c-13" value="MS teams message" style="strokeWidth=2;dashed=0;align=center;fontSize=12;fillColor=#c0f5a9;verticalLabelPosition=bottom;verticalAlign=top;shape=mxgraph.eip.envelope_wrapper;" parent="1" vertex="1">
          <mxGeometry x="1368" y="406" width="88" height="65" as="geometry" />
        </mxCell>
        <mxCell id="10b056a9c633e61c-30" value="EDOP Chatbot" style="text;strokeColor=none;fillColor=none;html=1;fontSize=24;fontStyle=1;verticalAlign=middle;align=center;" parent="1" vertex="1">
          <mxGeometry x="80" y="40" width="1590" height="40" as="geometry" />
        </mxCell>
        <mxCell id="2i1Whluo_Nb75jQpyrb8-1" value="MS Teams" style="shape=image;html=1;verticalAlign=top;verticalLabelPosition=bottom;labelBackgroundColor=#ffffff;imageAspect=0;aspect=fixed;image=https://cdn0.iconfinder.com/data/icons/logos-microsoft-office-365/128/Microsoft_Office-10-128.png" vertex="1" parent="1">
          <mxGeometry x="1110" y="231" width="78" height="78" as="geometry" />
        </mxCell>
        <mxCell id="2i1Whluo_Nb75jQpyrb8-5" style="edgeStyle=orthogonalEdgeStyle;rounded=0;orthogonalLoop=1;jettySize=auto;html=1;" edge="1" parent="1" source="2i1Whluo_Nb75jQpyrb8-4">
          <mxGeometry relative="1" as="geometry">
            <mxPoint x="1200" y="265" as="targetPoint" />
          </mxGeometry>
        </mxCell>
        <mxCell id="2i1Whluo_Nb75jQpyrb8-4" value="User" style="image;aspect=fixed;html=1;points=[];align=center;fontSize=12;image=img/lib/azure2/identity/Users.svg;" vertex="1" parent="1">
          <mxGeometry x="1380" y="230" width="64" height="70" as="geometry" />
        </mxCell>
        <mxCell id="2i1Whluo_Nb75jQpyrb8-6" value="Posts a query in MS teams&amp;nbsp;" style="text;html=1;align=center;verticalAlign=middle;resizable=0;points=[];autosize=1;strokeColor=none;fillColor=none;" vertex="1" parent="1">
          <mxGeometry x="1195" y="239" width="170" height="30" as="geometry" />
        </mxCell>
        <mxCell id="2i1Whluo_Nb75jQpyrb8-8" style="edgeStyle=orthogonalEdgeStyle;rounded=0;orthogonalLoop=1;jettySize=auto;html=1;" edge="1" parent="1" source="2i1Whluo_Nb75jQpyrb8-7">
          <mxGeometry relative="1" as="geometry">
            <mxPoint x="1151" y="331" as="targetPoint" />
          </mxGeometry>
        </mxCell>
        <mxCell id="2i1Whluo_Nb75jQpyrb8-9" value="Reads the message&amp;nbsp;" style="edgeLabel;html=1;align=center;verticalAlign=middle;resizable=0;points=[];" vertex="1" connectable="0" parent="2i1Whluo_Nb75jQpyrb8-8">
          <mxGeometry x="-0.0355" y="1" relative="1" as="geometry">
            <mxPoint as="offset" />
          </mxGeometry>
        </mxCell>
        <mxCell id="2i1Whluo_Nb75jQpyrb8-16" style="edgeStyle=orthogonalEdgeStyle;rounded=0;orthogonalLoop=1;jettySize=auto;html=1;" edge="1" parent="1" source="2i1Whluo_Nb75jQpyrb8-7">
          <mxGeometry relative="1" as="geometry">
            <mxPoint x="970" y="440" as="targetPoint" />
          </mxGeometry>
        </mxCell>
        <mxCell id="2i1Whluo_Nb75jQpyrb8-42" style="edgeStyle=orthogonalEdgeStyle;rounded=0;orthogonalLoop=1;jettySize=auto;html=1;exitX=1;exitY=0.5;exitDx=0;exitDy=0;exitPerimeter=0;" edge="1" parent="1" source="2i1Whluo_Nb75jQpyrb8-7">
          <mxGeometry relative="1" as="geometry">
            <mxPoint x="1360" y="440" as="targetPoint" />
          </mxGeometry>
        </mxCell>
        <mxCell id="2i1Whluo_Nb75jQpyrb8-43" value="Formats the answer as&lt;br&gt;a MS teams message" style="edgeLabel;html=1;align=center;verticalAlign=bottom;resizable=0;points=[];labelPosition=center;verticalLabelPosition=top;" vertex="1" connectable="0" parent="2i1Whluo_Nb75jQpyrb8-42">
          <mxGeometry x="-0.0616" y="-1" relative="1" as="geometry">
            <mxPoint as="offset" />
          </mxGeometry>
        </mxCell>
        <mxCell id="2i1Whluo_Nb75jQpyrb8-7" value="Chatbot&lt;br&gt;" style="sketch=0;points=[[0,0,0],[0.25,0,0],[0.5,0,0],[0.75,0,0],[1,0,0],[0,1,0],[0.25,1,0],[0.5,1,0],[0.75,1,0],[1,1,0],[0,0.25,0],[0,0.5,0],[0,0.75,0],[1,0.25,0],[1,0.5,0],[1,0.75,0]];points=[[0,0,0],[0.25,0,0],[0.5,0,0],[0.75,0,0],[1,0,0],[0,1,0],[0.25,1,0],[0.5,1,0],[0.75,1,0],[1,1,0],[0,0.25,0],[0,0.5,0],[0,0.75,0],[1,0.25,0],[1,0.5,0],[1,0.75,0]];outlineConnect=0;fontColor=#232F3E;gradientColor=#F34482;gradientDirection=north;fillColor=#BC1356;strokeColor=#ffffff;dashed=0;verticalLabelPosition=bottom;verticalAlign=top;align=center;html=1;fontSize=12;fontStyle=0;aspect=fixed;shape=mxgraph.aws4.resourceIcon;resIcon=mxgraph.aws4.chatbot;" vertex="1" parent="1">
          <mxGeometry x="1112" y="401" width="78" height="78" as="geometry" />
        </mxCell>
        <mxCell id="2i1Whluo_Nb75jQpyrb8-10" value="Orchestrator API" style="rounded=1;whiteSpace=wrap;html=1;" vertex="1" parent="1">
          <mxGeometry x="890" y="401" width="80" height="70" as="geometry" />
        </mxCell>
        <mxCell id="2i1Whluo_Nb75jQpyrb8-17" value="&lt;span style=&quot;color: rgb(0, 0, 0); font-family: Helvetica; font-size: 11px; font-style: normal; font-variant-ligatures: normal; font-variant-caps: normal; font-weight: 400; letter-spacing: normal; orphans: 2; text-align: center; text-indent: 0px; text-transform: none; widows: 2; word-spacing: 0px; -webkit-text-stroke-width: 0px; background-color: rgb(255, 255, 255); text-decoration-thickness: initial; text-decoration-style: initial; text-decoration-color: initial; float: none; display: inline !important;&quot;&gt;Calls orchestrator to fulfill the request&lt;/span&gt;" style="text;whiteSpace=wrap;html=1;" vertex="1" parent="1">
          <mxGeometry x="1020" y="411" width="70" height="80" as="geometry" />
        </mxCell>
        <mxCell id="2i1Whluo_Nb75jQpyrb8-26" style="edgeStyle=orthogonalEdgeStyle;rounded=0;orthogonalLoop=1;jettySize=auto;html=1;entryX=-0.029;entryY=0.375;entryDx=0;entryDy=0;entryPerimeter=0;" edge="1" parent="1" source="2i1Whluo_Nb75jQpyrb8-19" target="2i1Whluo_Nb75jQpyrb8-24">
          <mxGeometry relative="1" as="geometry" />
        </mxCell>
        <mxCell id="2i1Whluo_Nb75jQpyrb8-19" value="Internal &lt;br&gt;Documentation and chat history" style="outlineConnect=0;dashed=0;verticalLabelPosition=bottom;verticalAlign=top;align=center;html=1;shape=mxgraph.aws3.documents;fillColor=#759C3E;gradientColor=none;" vertex="1" parent="1">
          <mxGeometry x="480" y="380.5" width="90" height="100.5" as="geometry" />
        </mxCell>
        <mxCell id="2i1Whluo_Nb75jQpyrb8-27" style="edgeStyle=orthogonalEdgeStyle;rounded=0;orthogonalLoop=1;jettySize=auto;html=1;" edge="1" parent="1" source="2i1Whluo_Nb75jQpyrb8-22" target="2i1Whluo_Nb75jQpyrb8-24">
          <mxGeometry relative="1" as="geometry" />
        </mxCell>
        <mxCell id="2i1Whluo_Nb75jQpyrb8-22" value="Video transcripts&lt;br&gt;" style="html=1;verticalLabelPosition=bottom;align=center;labelBackgroundColor=#ffffff;verticalAlign=top;strokeWidth=2;strokeColor=#0080F0;shadow=0;dashed=0;shape=mxgraph.ios7.icons.video_conversation;" vertex="1" parent="1">
          <mxGeometry x="490" y="561" width="90" height="50" as="geometry" />
        </mxCell>
        <mxCell id="2i1Whluo_Nb75jQpyrb8-25" style="edgeStyle=orthogonalEdgeStyle;rounded=0;orthogonalLoop=1;jettySize=auto;html=1;entryX=0.397;entryY=0.068;entryDx=0;entryDy=0;entryPerimeter=0;" edge="1" parent="1" source="2i1Whluo_Nb75jQpyrb8-23" target="2i1Whluo_Nb75jQpyrb8-24">
          <mxGeometry relative="1" as="geometry" />
        </mxCell>
        <mxCell id="2i1Whluo_Nb75jQpyrb8-28" value="training model" style="edgeLabel;html=1;align=center;verticalAlign=middle;resizable=0;points=[];" vertex="1" connectable="0" parent="2i1Whluo_Nb75jQpyrb8-25">
          <mxGeometry x="0.4294" relative="1" as="geometry">
            <mxPoint as="offset" />
          </mxGeometry>
        </mxCell>
        <mxCell id="2i1Whluo_Nb75jQpyrb8-23" value="Product documentation (public)" style="sketch=0;pointerEvents=1;shadow=0;dashed=0;html=1;strokeColor=none;fillColor=#505050;labelPosition=center;verticalLabelPosition=bottom;verticalAlign=top;outlineConnect=0;align=center;shape=mxgraph.office.concepts.documents;" vertex="1" parent="1">
          <mxGeometry x="470" y="230" width="90" height="85" as="geometry" />
        </mxCell>
        <mxCell id="2i1Whluo_Nb75jQpyrb8-30" style="edgeStyle=orthogonalEdgeStyle;rounded=0;orthogonalLoop=1;jettySize=auto;html=1;" edge="1" parent="1" source="2i1Whluo_Nb75jQpyrb8-10" target="2i1Whluo_Nb75jQpyrb8-24">
          <mxGeometry relative="1" as="geometry">
            <mxPoint x="860" y="441" as="sourcePoint" />
            <Array as="points">
              <mxPoint x="810" y="441" />
              <mxPoint x="810" y="440" />
            </Array>
          </mxGeometry>
        </mxCell>
        <mxCell id="2i1Whluo_Nb75jQpyrb8-31" value="search indexed data" style="edgeLabel;html=1;align=center;verticalAlign=middle;resizable=0;points=[];" vertex="1" connectable="0" parent="2i1Whluo_Nb75jQpyrb8-30">
          <mxGeometry x="-0.1881" y="1" relative="1" as="geometry">
            <mxPoint x="-7" y="-2" as="offset" />
          </mxGeometry>
        </mxCell>
        <mxCell id="2i1Whluo_Nb75jQpyrb8-24" value="Index store&lt;br&gt;" style="verticalLabelPosition=bottom;html=1;verticalAlign=top;align=center;strokeColor=none;fillColor=#00BEF2;shape=mxgraph.azure.sql_reporting;" vertex="1" parent="1">
          <mxGeometry x="692" y="403" width="68" height="74" as="geometry" />
        </mxCell>
        <mxCell id="2i1Whluo_Nb75jQpyrb8-32" style="edgeStyle=orthogonalEdgeStyle;rounded=0;html=1;endArrow=block;endFill=1;jettySize=auto;orthogonalLoop=1;strokeWidth=2;startArrow=none;startFill=0;exitX=0.5;exitY=1;exitDx=0;exitDy=0;" edge="1" parent="1" source="2i1Whluo_Nb75jQpyrb8-10">
          <mxGeometry relative="1" as="geometry">
            <mxPoint x="850" y="521" as="sourcePoint" />
            <mxPoint x="790" y="631" as="targetPoint" />
            <Array as="points">
              <mxPoint x="930" y="571" />
              <mxPoint x="790" y="571" />
            </Array>
          </mxGeometry>
        </mxCell>
        <mxCell id="2i1Whluo_Nb75jQpyrb8-49" value="Identify relevant docs&amp;nbsp; and &lt;br&gt;sort them by relevance" style="edgeLabel;html=1;align=center;verticalAlign=middle;resizable=0;points=[];" vertex="1" connectable="0" parent="2i1Whluo_Nb75jQpyrb8-32">
          <mxGeometry x="0.1933" y="3" relative="1" as="geometry">
            <mxPoint x="9" y="-23" as="offset" />
          </mxGeometry>
        </mxCell>
        <mxCell id="2i1Whluo_Nb75jQpyrb8-38" style="edgeStyle=orthogonalEdgeStyle;rounded=0;orthogonalLoop=1;jettySize=auto;html=1;entryX=-0.009;entryY=0.5;entryDx=0;entryDy=0;entryPerimeter=0;" edge="1" parent="1" target="2i1Whluo_Nb75jQpyrb8-34">
          <mxGeometry relative="1" as="geometry">
            <mxPoint x="870" y="666" as="sourcePoint" />
          </mxGeometry>
        </mxCell>
        <mxCell id="2i1Whluo_Nb75jQpyrb8-39" value="passes user query&lt;br&gt;&amp;nbsp;+ relevant information" style="edgeLabel;html=1;align=center;verticalAlign=bottom;resizable=0;points=[];horizontal=1;labelPosition=center;verticalLabelPosition=top;" vertex="1" connectable="0" parent="2i1Whluo_Nb75jQpyrb8-38">
          <mxGeometry x="-0.1714" y="4" relative="1" as="geometry">
            <mxPoint as="offset" />
          </mxGeometry>
        </mxCell>
        <mxCell id="2i1Whluo_Nb75jQpyrb8-40" style="edgeStyle=orthogonalEdgeStyle;rounded=0;orthogonalLoop=1;jettySize=auto;html=1;entryX=0.594;entryY=1.282;entryDx=0;entryDy=0;entryPerimeter=0;" edge="1" parent="1" source="2i1Whluo_Nb75jQpyrb8-34" target="2i1Whluo_Nb75jQpyrb8-7">
          <mxGeometry relative="1" as="geometry" />
        </mxCell>
        <mxCell id="2i1Whluo_Nb75jQpyrb8-34" value="LLM like OpenAI" style="image;sketch=0;aspect=fixed;html=1;points=[];align=center;fontSize=12;image=img/lib/mscae/Cognitive_Services.svg;" vertex="1" parent="1">
          <mxGeometry x="1100" y="631" width="116.66" height="70" as="geometry" />
        </mxCell>
        <mxCell id="2i1Whluo_Nb75jQpyrb8-41" value="Generative AI output for original query with sources link" style="text;html=1;align=center;verticalAlign=middle;resizable=0;points=[];autosize=1;strokeColor=none;fillColor=none;" vertex="1" parent="1">
          <mxGeometry x="990" y="559" width="320" height="30" as="geometry" />
        </mxCell>
        <mxCell id="2i1Whluo_Nb75jQpyrb8-45" value="" style="shape=image;html=1;verticalAlign=top;verticalLabelPosition=bottom;labelBackgroundColor=#ffffff;imageAspect=0;aspect=fixed;image=https://cdn0.iconfinder.com/data/icons/logos-microsoft-office-365/128/Microsoft_Office-10-128.png" vertex="1" parent="1">
          <mxGeometry x="1430" y="421" width="50" height="50" as="geometry" />
        </mxCell>
        <mxCell id="2i1Whluo_Nb75jQpyrb8-50" value="" style="strokeWidth=2;dashed=0;align=center;fontSize=12;fillColor=#c0f5a9;verticalLabelPosition=bottom;verticalAlign=top;shape=mxgraph.eip.composed_message_processor;" vertex="1" parent="1">
          <mxGeometry x="717" y="631" width="150" height="90" as="geometry" />
        </mxCell>
      </root>
    </mxGraphModel>
  </diagram>
</mxfile>
